<svg width="33" height="19" viewBox="0 0 33 19" fill="none" xmlns="http://www.w3.org/2000/svg">
<path d="M0.125 18V0.545454H7.65909C8.95455 0.545454 10.0881 0.801136 11.0597 1.3125C12.0313 1.82386 12.7869 2.54261 13.3267 3.46875C13.8665 4.39489 14.1364 5.47727 14.1364 6.71591C14.1364 7.96591 13.858 9.0483 13.3011 9.96307C12.75 10.8778 11.9744 11.5824 10.9744 12.0767C9.98011 12.571 8.81818 12.8182 7.48864 12.8182H2.98864V9.13636H6.53409C7.09091 9.13636 7.56534 9.03977 7.95739 8.84659C8.35511 8.64773 8.65909 8.36648 8.86932 8.00284C9.08523 7.6392 9.19318 7.21023 9.19318 6.71591C9.19318 6.21591 9.08523 5.78977 8.86932 5.4375C8.65909 5.07955 8.35511 4.80682 7.95739 4.61932C7.56534 4.42614 7.09091 4.32954 6.53409 4.32954H4.86364V18H0.125Z" fill="#5B89FF"/>
<path d="M32.1705 7.09091H27.3636C27.3295 6.69318 27.2386 6.33239 27.0909 6.00852C26.9489 5.68466 26.75 5.40625 26.4943 5.17329C26.2443 4.93466 25.9403 4.75284 25.5824 4.62784C25.2244 4.49716 24.8182 4.43182 24.3636 4.43182C23.5682 4.43182 22.8949 4.625 22.3438 5.01136C21.7983 5.39773 21.3835 5.9517 21.0994 6.6733C20.821 7.39489 20.6818 8.26136 20.6818 9.27273C20.6818 10.3409 20.8239 11.2358 21.108 11.9574C21.3977 12.6733 21.8153 13.2131 22.3608 13.5767C22.9063 13.9347 23.5625 14.1136 24.3295 14.1136C24.767 14.1136 25.1591 14.0597 25.5057 13.9517C25.8523 13.8381 26.1534 13.6761 26.4091 13.4659C26.6648 13.2557 26.8722 13.0028 27.0312 12.7074C27.196 12.4062 27.3068 12.0682 27.3636 11.6932L32.1705 11.7273C32.1136 12.4659 31.9063 13.2187 31.5483 13.9858C31.1903 14.7472 30.6818 15.4517 30.0227 16.0994C29.3693 16.7415 28.5597 17.2585 27.5938 17.6506C26.6278 18.0426 25.5057 18.2386 24.2273 18.2386C22.625 18.2386 21.1875 17.8949 19.9148 17.2074C18.6477 16.5199 17.6449 15.5085 16.9062 14.1733C16.1733 12.8381 15.8068 11.2045 15.8068 9.27273C15.8068 7.32955 16.1818 5.69318 16.9318 4.36364C17.6818 3.02841 18.6932 2.01989 19.9659 1.33807C21.2386 0.650568 22.6591 0.306818 24.2273 0.306818C25.3295 0.306818 26.3438 0.457386 27.2699 0.758522C28.196 1.05966 29.0085 1.5 29.7074 2.07954C30.4063 2.65341 30.9688 3.3608 31.3949 4.2017C31.821 5.04261 32.0795 6.00568 32.1705 7.09091Z" fill="#646464"/>
</svg>
